Coordinates
version=1
nRows=14
nColumns=40
inDegrees=yes

Units are S.I. units (second, meters, Newtons, ...)
Angles are in degrees.

endheader
time	pelvis_tilt	pelvis_list	pelvis_rotation	pelvis_tx	pelvis_ty	pelvis_tz	hip_flexion_r	hip_adduction_r	hip_rotation_r	knee_angle_r	knee_angle_r_beta	ankle_angle_r	subtalar_angle_r	mtp_angle_r	hip_flexion_l	hip_adduction_l	hip_rotation_l	knee_angle_l	knee_angle_l_beta	ankle_angle_l	subtalar_angle_l	mtp_angle_l	lumbar_extension	lumbar_bending	lumbar_rotation	arm_flex_r	arm_add_r	arm_rot_r	elbow_flex_r	pro_sup_r	wrist_flex_r	wrist_dev_r	arm_flex_l	arm_add_l	arm_rot_l	elbow_flex_l	pro_sup_l	wrist_flex_l	wrist_dev_l
     14.11000000	     -3.83479128	     -4.72377418	     -1.81162853	      0.97564973	      0.92396580	      0.55533594	     15.23228273	      5.88199205	     -8.83370438	     23.06251790	     23.06251790	     13.46753748	     -3.83460642	     -1.32575264	     25.31939170	    -14.76319608	      1.20037541	     62.52599073	     62.52599073	     15.22370100	    -19.57562602	     23.02064811	    -10.10932936	      6.09977851	      0.99038690	     12.41401795	    -17.93419003	    -12.13688972	     39.56801047	     45.97882382	      0.00000000	      0.00000000	     18.43514850	     -9.50243156	     -1.77569110	     37.94473642	     45.89436620	      0.00000000	      0.00000000
     14.12935714	     -3.65431329	     -4.66236086	     -1.37548392	      0.97475723	      0.92347533	      0.55732537	     14.93896596	      5.84233102	     -9.16136946	     23.55392357	     23.55392357	     14.00992530	     -3.88408498	     -1.48178940	     26.42474927	    -14.94690446	      0.72090342	     61.06238146	     61.06238146	     15.58552408	    -19.57635898	     22.98326517	    -10.14957265	      5.99573893	      0.91456401	     14.48772958	    -17.63759274	    -12.42362732	     41.08566518	     45.94660211	      0.00000000	      0.00000000	     15.48680803	     -9.07511870	     -1.44891392	     36.30456150	     45.81893636	      0.00000000	      0.00000000
     14.14871429	     -3.47697974	     -4.62396876	     -0.93090183	      0.97384415	      0.92290606	      0.55927832	     14.61420493	      5.83446225	     -9.51120797	     24.00373147	     24.00373147	     14.60285211	     -3.94439926	     -1.51100725	     27.44007198	    -15.10149417	      0.22223125	     59.32661392	     59.32661392	     15.82128958	    -19.57514502	     22.83341457	    -10.19075624	      5.92614306	      0.85211861	     16.59539052	    -17.31943053	    -12.72002625	     42.79218636	     45.90702139	      0.00000000	      0.00000000	     12.55972866	     -8.70225697	     -0.93337165	     34.47544321	     45.72187563	      0.00000000	      0.00000000
     14.16807143	     -3.30602361	     -4.61272181	     -0.53765154	      0.97289690	      0.92229523	      0.56112642	     14.25362166	      5.88769551	     -9.73486303	     24.36729349	     24.36729349	     15.13755785	     -4.08349502	     -1.64707699	     28.34094668	    -15.23016097	     -0.29325358	     57.35795597	     57.35795597	     15.95782740	    -19.54926797	     22.80862040	    -10.25236672	      5.86730471	      1.48712859	     18.44749657	    -17.57157129	    -12.90897607	     43.93252710	     45.88438199	      0.00000000	      0.00000000	      9.80439324	     -7.98888610	     -0.60620341	     33.13158539	     45.64064325	      0.00000000	      0.00000000
     14.18742857	     -3.11234143	     -4.55692319	     -0.04432881	      0.97184450	      0.92171346	      0.56264873	     13.96441975	      5.77648266	    -10.29033915	     24.95585510	     24.95585510	     16.11566022	     -3.66372292	     -0.68505038	     29.03977922	    -15.17510819	     -0.69251427	     55.02112158	     55.02112158	     15.63358713	    -19.53979851	     21.84688665	    -10.35610328	      5.82234619	      1.25373074	     20.43611705	    -16.93921847	    -13.64392350	     46.72938679	     45.81834802	      0.00000000	      0.00000000	      7.39137326	     -8.01097683	      1.58227051	     30.13324965	     45.35141299	      0.00000000	      0.00000000
     14.20678571	     -2.94582454	     -4.51590491	      0.39299983	      0.97074564	      0.92110189	      0.56390680	     13.60646917	      5.76049591	    -10.56755238	     25.29832457	     25.29832457	     16.62727277	     -3.77614961	     -0.78083507	     29.68836383	    -15.04619795	     -1.00020324	     52.60873132	     52.60873132	     15.50579083	    -19.50422407	     21.89823543	    -10.43376178	      5.79788099	      1.29633908	     22.59311862	    -16.68468592	    -13.83181104	     48.31225422	     45.77916057	      0.00000000	      0.00000000	      4.63610689	     -7.72423810	      2.05742606	     28.73133839	     45.24654440	      0.00000000	      0.00000000
     14.22614286	     -2.82660513	     -4.51564626	      0.83091858	      0.96962991	      0.92048360	      0.56483784	     13.26129998	      5.73748605	    -11.00094707	     25.56276070	     25.56276070	     17.15785327	     -3.62987789	     -0.82950617	     30.25084694	    -14.86351163	     -1.17727675	     50.02034973	     50.02034973	     15.10415819	    -19.44764851	     21.54356982	    -10.45747013	      5.82822902	      1.31614111	     24.72411685	    -16.38847681	    -14.01537284	     50.02145404	     45.73484465	      0.00000000	      0.00000000	      2.03353896	     -7.53492181	      2.65365081	     27.46358260	     45.12083237	      0.00000000	      0.00000000
     14.24550000	     -2.81891865	     -4.60200673	      1.23090323	      0.96833111	      0.91982255	      0.56547391	     13.01089171	      5.83313507	    -11.29885452	     25.72467176	     25.72467176	     17.52654518	     -3.69711748	     -0.94074922	     30.88802518	    -14.68098535	     -1.16680790	     47.40524295	     47.40524295	     14.76046236	    -19.35558491	     21.73439098	    -10.33670031	      5.95943024	      2.16775323	     26.48029379	    -16.92198540	    -14.18388516	     50.95054593	     45.71884710	      0.00000000	      0.00000000	     -0.13894198	     -7.20164111	      2.81668548	     26.65477546	     45.05979718	      0.00000000	      0.00000000
     14.26485714	     -2.63145156	     -4.48317829	      1.65900771	      0.96726374	      0.91969523	      0.56566569	     12.48244315	      5.59578663	    -11.93066937	     25.84226182	     25.84226182	     18.27179324	     -2.94734096	     -0.35816762	     30.91075237	    -14.29468086	     -1.39007083	     44.25117138	     44.25117138	     13.03540893	    -19.27158021	     18.28006204	    -10.49709903	      5.93282915	      1.85208264	     28.31197300	    -16.24875875	    -14.38037448	     54.24459881	     45.61567794	      0.00000000	      0.00000000	     -3.01533669	     -7.56994477	      5.54416252	     26.51881678	     44.58337050	      0.00000000	      0.00000000
     14.28421429	     -2.70424989	     -4.59079756	      2.02214595	      0.96589286	      0.91926895	      0.56557240	     12.26749840	      5.67858284	    -12.20835601	     25.87413256	     25.87413256	     18.52499088	     -2.95519607	     -0.45141356	     31.41712410	    -14.00778663	     -1.17612447	     41.55638884	     41.55638884	     12.65198181	    -19.00840228	     18.64824544	    -10.26805854	      6.13366894	      2.62778024	     30.15160794	    -16.82201686	    -14.53147296	     55.14656783	     45.60027273	      0.00000000	      0.00000000	     -4.90654154	     -7.39543543	      5.67934200	     25.85940145	     44.53148190	      0.00000000	      0.00000000
     14.30357143	     -2.53697833	     -4.31731546	      2.41347673	      0.96476153	      0.91981045	      0.56497063	     11.53190161	      5.30494019	    -12.67756324	     25.53047989	     25.53047989	     18.83177899	     -2.38277099	     -0.51692374	     31.23066082	    -13.25633677	     -1.03333162	     38.43011494	     38.43011494	     11.85620787	    -18.82138615	     18.33648060	    -10.36873258	      5.93410666	      2.30228477	     32.25765283	    -16.12703805	    -14.44250707	     57.15815251	     45.53498655	      0.00000000	      0.00000000	     -7.10482039	     -7.38777117	      6.12459078	     25.14390510	     44.42289336	      0.00000000	      0.00000000
     14.32292857	     -2.50334136	     -4.33621053	      2.80360713	      0.96363096	      0.91995591	      0.56414857	     10.99857081	      5.15512886	    -13.46648092	     25.29261107	     25.29261107	     19.17643900	     -1.42967409	     -0.53310954	     31.12719485	    -12.91024124	     -0.99746087	     35.27447186	     35.27447186	      9.66245603	    -18.47818392	     13.68652243	    -10.35237716	      6.09964388	      2.46274776	     33.70949173	    -16.29988141	    -13.92312465	     60.28327494	     45.41974011	      0.00000000	      0.00000000	     -9.68965333	     -7.80568428	      8.38474395	     26.62185861	     44.02201727	      0.00000000	      0.00000000
     14.34228571	     -2.46753496	     -4.28088846	      3.15350833	      0.96251704	      0.92053390	      0.56313702	     10.31863948	      5.06329376	    -13.81542219	     24.73889268	     24.73889268	     19.29740034	     -1.07174677	     -0.51717420	     31.04924566	    -12.41580003	     -0.71179704	     32.54540188	     32.54540188	      9.20569422	    -17.80222030	     13.66130344	    -10.25897124	      6.13724009	      2.59455317	     35.61161416	    -16.22758104	    -13.87118066	     61.65991080	     45.38108157	      0.00000000	      0.00000000	    -11.37658400	     -7.80246913	      8.90696087	     26.14839936	     43.92401628	      0.00000000	      0.00000000
     14.36164286	     -2.47359782	     -4.24252646	      3.49984493	      0.96151146	      0.92110799	      0.56186070	      9.61844252	      4.94084162	    -14.36273388	     24.08547398	     24.08547398	     19.32678365	     -0.42388086	     -0.81549711	     30.82700847	    -12.00802518	     -0.61827509	     29.73881726	     29.73881726	      7.81372003	    -17.02644390	     10.74136890	    -10.11350298	      6.22536668	      2.98545766	     37.03766715	    -16.51197166	    -13.58113448	     63.87310120	     45.36110701	      0.00000000	      0.00000000	    -13.32196640	     -8.87322657	     15.31030127	     27.65092503	     43.34823109	      0.00000000	      0.00000000
